<svg width="16" height="16" viewBox="0 0 16 16" fill="none" xmlns="http://www.w3.org/2000/svg">
<path d="M13.8333 11.9784L12.1414 13.6567C11.8917 13.9128 11.5606 13.9996 11.2382 14C9.81252 13.9573 8.4649 13.257 7.35842 12.5378C5.5422 11.2165 3.87574 9.5782 2.82984 7.59832C2.4287 6.76809 1.95802 5.70878 2.00299 4.78209C2.007 4.43349 2.10094 4.09136 2.34645 3.86666L4.03831 2.17565C4.38963 1.87682 4.72938 1.98014 4.9542 2.32822L6.31531 4.90924C6.45857 5.21501 6.37639 5.54263 6.16265 5.76112L5.53933 6.38412C5.50085 6.43683 5.47635 6.49683 5.47573 6.56213C5.71475 7.48735 6.43886 8.34012 7.07854 8.92699C7.71821 9.51387 8.40579 10.309 9.29831 10.4972C9.40863 10.528 9.54376 10.5388 9.62269 10.4654L10.3478 9.72798C10.5978 9.53853 10.9587 9.44593 11.2255 9.60084H11.2382L13.6933 11.0503C14.0537 11.2762 14.0913 11.7128 13.8333 11.9784Z" fill="white"/>
</svg>
