<svg width="25" height="24" viewBox="0 0 25 24" fill="none" xmlns="http://www.w3.org/2000/svg">
<path d="M12.792 6C8.37605 6 4.80005 9.584 4.80005 14C4.80005 18.416 8.37605 22 12.792 22C17.216 22 20.8 18.416 20.8 14C20.8 9.584 17.216 6 12.792 6ZM16 17.2C15.926 17.2742 15.8381 17.333 15.7413 17.3731C15.6446 17.4133 15.5408 17.434 15.436 17.434C15.3313 17.434 15.2275 17.4133 15.1307 17.3731C15.034 17.333 14.9461 17.2742 14.872 17.2L12.24 14.568C12.1645 14.4939 12.1043 14.4056 12.0631 14.3081C12.0219 14.2106 12.0005 14.1058 12 14V10.8C12 10.36 12.36 10 12.8 10C13.24 10 13.6 10.36 13.6 10.8V13.672L16 16.072C16.312 16.384 16.312 16.888 16 17.2Z" fill="#EAECF0"/>
</svg>
