<svg width="25" height="28" viewBox="0 0 25 28" fill="none" xmlns="http://www.w3.org/2000/svg">
<path d="M19.8075 9.02083C18.0556 7.14583 15.4794 6 12.8 6C10.1207 6 7.54449 7.04167 5.79264 9.02083C4.34994 10.6875 3.62859 12.7708 3.83469 14.8542C3.83469 15.2708 3.93774 15.6875 4.04079 16C4.96824 20.375 9.70854 24.2292 11.7695 25.6875C12.0787 25.8958 12.3878 26 12.8 26C13.2122 26 13.5214 25.8958 13.8306 25.6875C15.7885 24.2292 20.6319 20.375 21.5593 16C21.6624 15.6875 21.6624 15.2708 21.7654 14.8542C21.9715 12.7708 21.2502 10.6875 19.8075 9.02083ZM12.8 17.9792C11.2543 17.9792 9.91464 16.7292 9.91464 15.0625C9.91464 13.3958 11.1512 12.1458 12.8 12.1458C14.4489 12.1458 15.6855 13.3958 15.6855 15.0625C15.6855 16.7292 14.3458 17.9792 12.8 17.9792Z" fill="#EAECF0"/>
</svg>
