<svg width="25" height="24" viewBox="0 0 25 24" fill="none" xmlns="http://www.w3.org/2000/svg">
<path d="M22.8 8.58532V17.0731C22.8 18.439 21.6734 19.6097 20.2394 19.7073C18.0885 19.9024 15.1182 20 12.8649 20C10.6115 20 7.64121 19.8048 5.4903 19.7073C4.05636 19.6097 2.92969 18.439 2.92969 17.0731V8.58532L4.46605 9.36581L11.5333 13.0731C11.943 13.2682 12.4552 13.3658 12.8649 13.3658C13.2746 13.3658 13.7867 13.2682 14.1964 13.0731L21.2637 9.36581L22.8 8.58532Z" fill="#EAECF0"/>
<path d="M22.6976 6.43902C22.6976 6.63415 22.5952 6.92683 22.3904 7.02439L21.1613 7.60976L13.377 11.7073C12.9673 11.9024 12.5576 11.9024 12.1479 11.7073L3.13457 7.02439C2.92972 6.92683 2.72487 6.73171 2.82729 6.53659C3.03214 5.36585 4.05639 4.39024 5.3879 4.29268C7.53881 4.09756 10.5091 4 12.7625 4C15.0158 4 18.0885 4.19512 20.137 4.29268C21.4685 4.39024 22.4928 5.26829 22.6976 6.43902Z" fill="#EAECF0"/>
</svg>
