<svg width="25" height="24" viewBox="0 0 25 24" fill="none" xmlns="http://www.w3.org/2000/svg">
<path d="M18.8 9.75H17.3C17.2995 9.15345 17.0622 8.5815 16.6404 8.15967C16.2186 7.73784 15.6466 7.5006 15.05 7.5V6C16.0442 6.00119 16.9974 6.39666 17.7004 7.09966C18.4034 7.80267 18.7989 8.7558 18.8 9.75Z" fill="#EAECF0"/>
<path d="M21.7993 9.75001H20.2993C20.2977 8.35811 19.7441 7.02367 18.7599 6.03945C17.7757 5.05523 16.4412 4.50159 15.0493 4.50001V3.00001C16.8389 3.00199 18.5547 3.71379 19.8201 4.97923C21.0856 6.24467 21.7973 7.9604 21.7993 9.75001ZM16.0491 16.1115L17.7291 14.4315C17.954 14.2066 18.2399 14.0526 18.5515 13.9886C18.863 13.9246 19.1865 13.9534 19.4818 14.0715L21.5278 14.8905C21.8294 15.0112 22.0879 15.2194 22.27 15.4884C22.452 15.7573 22.5493 16.0747 22.5493 16.3995V20.1203C22.5499 20.3414 22.5052 20.5603 22.4182 20.7636C22.3312 20.9669 22.2036 21.1504 22.0433 21.3026C21.8829 21.4549 21.6931 21.5729 21.4856 21.6493C21.2781 21.7257 21.0572 21.7589 20.8363 21.747C6.49483 20.8545 3.59833 8.70751 3.06058 4.05601C3.03454 3.8286 3.05693 3.59826 3.12629 3.38013C3.19565 3.16201 3.31041 2.96104 3.46301 2.79044C3.61561 2.61984 3.8026 2.48349 4.01168 2.39034C4.22076 2.29719 4.44719 2.24937 4.67608 2.25001H8.33083C8.65563 2.25 8.97299 2.3473 9.24196 2.52938C9.51093 2.71146 9.71917 2.96995 9.83983 3.27151L10.6581 5.31751C10.7762 5.61284 10.805 5.93633 10.741 6.24788C10.677 6.55944 10.523 6.84538 10.2981 7.07026L8.61808 8.75026C8.61808 8.75026 9.54958 15.2993 16.0491 16.1115Z" fill="#EAECF0"/>
</svg>
