<svg width="16" height="16" viewBox="0 0 16 16" fill="none" xmlns="http://www.w3.org/2000/svg">
<path d="M12.9125 2.24806C11.6088 0.852713 9.69157 0 7.69767 0C5.70377 0 3.78656 0.775194 2.48286 2.24806C1.40922 3.48837 0.8724 5.03876 1.02578 6.58915C1.02578 6.89922 1.10247 7.2093 1.17915 7.44186C1.86935 10.6977 5.39702 14.6822 6.93079 15.7674C7.16085 15.9225 7.39092 16 7.69767 16C8.00443 16 8.23449 15.9225 8.46456 15.7674C9.92164 14.6822 13.526 10.6977 14.2162 7.44186C14.2929 7.2093 14.2929 6.89922 14.3696 6.58915C14.5229 5.03876 13.9861 3.48837 12.9125 2.24806ZM7.69767 8.91473C6.54735 8.91473 5.5504 7.9845 5.5504 6.74418C5.5504 5.50387 6.47066 4.57364 7.69767 4.57364C8.92469 4.57364 9.84495 5.50387 9.84495 6.74418C9.84495 7.9845 8.848 8.91473 7.69767 8.91473Z" fill="#344054"/>
</svg>
