<svg width="168" height="48" viewBox="0 0 168 48" fill="none" xmlns="http://www.w3.org/2000/svg">
<g clip-path="url(#clip0_2_952)">
<path fill-rule="evenodd" clip-rule="evenodd" d="M100.93 17.4337C103.938 14.5892 106.932 11.7278 109.96 8.90427C111.839 7.15238 113.792 5.4829 116.077 4.25836C117.452 3.52036 118.893 3.05756 120.448 3.54956C121.744 3.9589 121.818 4.3554 120.828 5.30691C113.95 11.9251 106.986 18.4475 99.3073 24.1528C99.0576 24.3384 98.8369 24.5657 98.6034 24.7753C96.513 25.9521 94.6415 27.5352 92.258 28.1668C89.6101 28.8683 87.7671 27.3309 88.0342 24.5932C88.1766 23.1286 88.5946 21.7219 89.0065 20.3126C89.2115 19.6144 89.6438 18.9247 89.3976 17.8406C88.7924 18.5132 88.3486 19.0186 87.892 19.5126C85.7913 21.786 83.6553 24.0289 81.1973 25.9234C79.999 26.8459 78.7218 27.9292 77.0798 26.9923C75.4206 26.0455 75.6325 24.3573 75.6867 22.7803C75.707 22.5717 75.7403 22.3646 75.7863 22.1602C76.1909 19.6726 76.9464 17.2748 77.6795 14.8729C78.3008 12.8383 78.9085 10.8009 79.5222 8.76433C79.3769 8.66173 79.2295 8.55931 79.0839 8.45655C77.727 9.89641 76.384 11.3501 75.01 12.7734C73.5554 14.279 72.2178 15.9243 70.4464 17.0841C67.9537 18.7156 65.6978 17.5259 65.5413 14.5435C65.4403 12.613 66.1187 10.8339 66.6032 9.01596C66.8861 7.95406 67.3972 6.93905 67.4007 5.77387C64.259 8.01472 61.1369 10.1253 58.4978 12.8378C55.6859 15.4967 52.8841 18.1662 50.0575 20.8096C47.9928 22.7405 45.8886 24.6264 43.3749 25.9786C42.005 26.7167 40.5638 27.1703 39.0123 26.692C37.7245 26.2949 37.6421 25.8699 38.6193 24.9314C45.4491 18.3686 52.3532 11.8881 59.9686 6.21925C60.3016 5.97169 60.5943 5.6704 60.9058 5.39399C62.9394 4.34249 64.6956 2.78479 66.9572 2.1434C69.8791 1.31521 71.7489 2.86529 71.3976 5.85627C71.1946 7.58338 70.6379 9.2202 70.1593 10.8784C70.0436 11.2823 69.8178 11.6864 70.0662 12.2646C72.7633 9.49834 75.1995 6.67581 78.1499 4.39743C79.3862 3.44212 80.69 2.27823 82.3846 3.25668C84.0926 4.24354 83.8139 6.00739 83.7531 7.62905C83.7458 7.83518 83.6702 8.03898 83.6351 8.24521C83.2265 10.6772 82.4892 13.0212 81.7742 15.3733C81.1558 17.408 80.542 19.444 79.9326 21.4813C80.0685 21.574 80.204 21.6666 80.339 21.7592C81.8128 20.217 83.2771 18.6653 84.763 17.1342C86.0379 15.8197 87.2272 14.4068 88.7297 13.3363C89.7778 12.59 90.9624 11.9991 92.2391 12.6571C93.537 13.3265 93.8906 14.5943 93.9199 15.9787C93.9452 17.147 93.6466 18.2522 93.373 19.3736C92.9593 21.0661 92.2174 22.6777 92.005 24.5345C95.1473 22.2212 98.2923 20.1461 100.93 17.4337Z" fill="url(#paint0_linear_2_952)"/>
<path d="M3.94743 42.0581L10.818 45.0667C11.7142 45.4508 11.8211 45.9204 11.8211 46.4109C11.8211 47.0938 11.3302 47.5635 10.6474 47.5635C10.3485 47.5635 10.0075 47.5209 9.47401 47.2647L0.78925 43.2745C0.554262 43.1697 0.354669 42.9991 0.214604 42.7832C0.0745388 42.5674 0 42.3156 0 42.0583C0 41.801 0.0745388 41.5492 0.214604 41.3334C0.354669 41.1175 0.554262 40.9469 0.78925 40.8421L9.47401 36.8517C10.0075 36.5959 10.3485 36.5527 10.6474 36.5527C11.3302 36.5527 11.8211 37.0223 11.8211 37.7051C11.8211 38.1961 11.7142 38.6652 10.818 39.0494L3.94743 42.0581Z" fill="#00A88E"/>
<path d="M28.1027 41.5353C28.1027 40.1486 27.6332 39.6576 26.6518 39.6576C25.905 39.6576 25.1792 40.4259 25.1792 41.6635V45.7391C25.1792 47.2326 24.2616 47.9154 22.9815 47.9154C21.7011 47.9154 20.7834 47.2326 20.7834 45.7391V41.5353C20.7834 40.1486 20.3144 39.6576 19.3325 39.6576C18.5857 39.6576 17.8604 40.4259 17.8604 41.6635V45.7391C17.8604 47.2326 16.943 47.9154 15.6627 47.9154C14.3823 47.9154 13.4648 47.2326 13.4648 45.7391V38.292C13.4648 36.9265 14.1261 36.2012 15.5773 36.2012C16.879 36.2012 17.3909 36.9477 17.5402 38.2705H17.5833C18.3086 36.9477 19.5249 36.2012 21.2105 36.2012C22.6401 36.2012 24.1338 36.8408 24.5178 38.356C25.4568 36.7984 26.6731 36.2012 28.2307 36.2012C31.2606 36.2012 32.4983 38.0786 32.4983 40.5111V45.7391C32.4983 47.2326 31.5808 47.9154 30.3006 47.9154C29.0204 47.9154 28.1027 47.2326 28.1027 45.7391V41.5353Z" fill="#0061AF"/>
<path d="M40.7558 47.9154C37.2561 47.9154 34.5039 46.1015 34.5039 42.0476C34.5039 38.0147 37.2561 36.2012 40.7558 36.2012C45.6637 36.2012 47.1574 39.5721 47.1574 41.2366C47.1574 42.5596 46.5382 43.0292 45.1302 43.0292H38.8995C39.0059 44.4374 39.8172 45.3549 41.2466 45.3549C42.8471 45.3549 43.7857 43.9892 45.1302 43.9892C45.8986 43.9892 46.4959 44.7361 46.4959 45.4402C46.4959 46.6564 45.002 47.9154 40.7558 47.9154ZM43.0177 40.8525C43.0177 39.3163 42.0574 38.7614 40.9695 38.7614C39.9874 38.7614 38.9635 39.2951 38.8995 40.8525H43.0177Z" fill="#0061AF"/>
<path d="M56.7162 34.1958C56.7162 32.6806 57.4847 31.998 58.8503 31.998C60.2159 31.998 60.984 32.6806 60.984 34.1958V45.7822C60.984 47.1907 60.3437 47.916 59.0211 47.916C57.7617 47.916 57.1004 47.0413 57.1004 45.9106H57.0579C56.6954 47.3186 54.9666 47.916 53.7079 47.916C50.6348 47.916 48.7148 45.6328 48.7148 42.027C48.7148 39.8716 49.9096 36.2018 53.5799 36.2018C55.0306 36.2018 56.0334 36.8846 56.6738 37.9084H56.7162V34.1958ZM55.0948 39.6583C53.5799 39.6583 53.1104 40.8959 53.1104 42.1762C53.1104 43.3711 53.5154 44.7155 55.0095 44.7155C56.2683 44.7155 56.7802 43.6488 56.7802 42.0694C56.7802 40.5117 56.055 39.6583 55.0948 39.6583Z" fill="#0061AF"/>
<path d="M63.2266 38.3768C63.2266 36.8835 64.1443 36.2007 65.4244 36.2007C66.7047 36.2007 67.6222 36.8835 67.6222 38.3768V45.7386C67.6222 47.2321 66.7047 47.9149 65.4244 47.9149C64.1443 47.9149 63.2266 47.2321 63.2266 45.7386V38.3768ZM65.4244 31.25C65.8337 31.25 66.2339 31.3715 66.5742 31.5989C66.9146 31.8263 67.1799 32.1496 67.3365 32.5278C67.4931 32.906 67.5341 33.3221 67.4542 33.7236C67.3744 34.1251 67.1772 34.4938 66.8878 34.7833C66.5983 35.0727 66.2295 35.2699 65.8281 35.3497C65.4266 35.4296 65.0104 35.3886 64.6322 35.2319C64.2541 35.0753 63.9308 34.81 63.7034 34.4696C63.476 34.1293 63.3546 33.7291 63.3546 33.3197C63.3531 33.0475 63.4056 32.7777 63.5091 32.5259C63.6126 32.2741 63.765 32.0453 63.9575 31.8529C64.15 31.6604 64.3787 31.508 64.6305 31.4045C64.8823 31.301 65.1522 31.2485 65.4244 31.25Z" fill="#0061AF"/>
<path d="M77.5021 38.3773C77.5021 36.884 78.4198 36.2012 79.6999 36.2012C80.9802 36.2012 81.8977 36.884 81.8977 38.3773V45.8244C81.8977 47.19 81.2364 47.9154 79.7854 47.9154C78.4835 47.9154 77.9716 47.1686 77.8223 45.846H77.7794C77.0541 47.1686 75.8378 47.9154 74.1519 47.9154C71.1005 47.9154 69.8633 46.0378 69.8633 43.605V38.3773C69.8633 36.884 70.7807 36.2012 72.0611 36.2012C73.3414 36.2012 74.2589 36.884 74.2589 38.3773V42.5812C74.2589 43.7975 74.7924 44.4587 75.8803 44.4587C76.9686 44.4587 77.5021 43.605 77.5021 42.2826V38.3773Z" fill="#0061AF"/>
<path d="M89.0681 43.5837L87.7664 43.3064C84.5656 42.6236 83.6268 41.4712 83.6268 39.8283C83.6268 38.1211 84.8642 36.2012 89.2598 36.2012C91.8631 36.2012 94.5731 36.9265 94.5731 38.6334C94.5731 39.4018 93.9756 39.9991 93.122 39.9991C91.6714 39.9991 91.223 38.6334 89.1318 38.6334C88.3423 38.6334 87.8941 38.9109 87.8941 39.4229C87.8941 39.8499 88.0866 40.0632 89.2598 40.3189L91.1165 40.7244C93.5275 41.2579 95.021 42.261 95.021 44.0533C95.021 45.9953 93.57 47.9154 88.9612 47.9154C86.1234 47.9154 83.6055 47.0622 83.6055 45.2057C83.6055 44.4803 84.3096 43.8614 85.1629 43.8614C86.4008 43.8614 86.998 45.4829 89.1105 45.4829C90.0495 45.4829 90.4974 45.0346 90.4974 44.6081C90.4974 44.2241 90.2844 43.84 89.0681 43.5837Z" fill="#0061AF"/>
<path d="M96.1316 38.8034C95.9975 38.4339 95.9253 38.0448 95.918 37.6517C95.918 36.8403 96.6437 36.2007 97.4329 36.2007C98.5852 36.2007 98.7561 36.8194 98.9694 37.7156L100.612 44.5437H100.655L101.978 38.3344C102.234 37.1181 102.49 36.1574 103.941 36.2007C105.413 36.1574 105.712 37.0964 105.99 38.3344L107.334 44.5437H107.377L108.913 37.7156C109.105 36.8194 109.297 36.2007 110.449 36.2007C111.239 36.2007 111.964 36.8403 111.964 37.6517C111.957 38.0447 111.885 38.4338 111.751 38.8034L109.468 46.2295C109.02 47.7015 108.678 47.9149 107.441 47.9149C106.139 47.9149 105.819 47.5308 105.499 46.2934L103.962 40.1691H103.92L102.384 46.2934C102.063 47.5308 101.744 47.9149 100.442 47.9149C99.204 47.9149 98.863 47.7015 98.4145 46.2295L96.1316 38.8034Z" fill="#0061AF"/>
<path d="M123.829 44.6295C123.829 45.9314 124.149 46.23 124.149 46.7205C124.149 47.4249 123.488 47.9154 122.741 47.9154C121.397 47.9154 120.948 47.0622 120.906 46.1015C119.69 47.4463 118.281 47.9154 116.638 47.9154C114.867 47.9154 113.117 46.6991 113.117 44.7361C113.117 42.154 115.081 41.4289 117.47 41.1511L119.37 40.9377C120.116 40.8525 120.713 40.682 120.713 39.7854C120.713 38.8893 119.796 38.5053 118.751 38.5053C116.446 38.5053 116.382 40.2125 115.145 40.2125C114.355 40.2125 113.821 39.6576 113.821 39.0176C113.821 37.7798 115.571 36.2012 118.772 36.2012C121.76 36.2012 123.829 37.1611 123.829 39.4018V44.6295ZM120.713 42.3889C120.372 42.7091 119.732 42.8159 119.37 42.8797L118.239 43.0502C116.937 43.2425 116.233 43.6481 116.233 44.5867C116.233 45.291 116.894 45.8669 117.961 45.8669C119.668 45.8669 120.713 44.7574 120.713 43.605V42.3889Z" fill="#0061AF"/>
<path d="M126.688 37.6522C126.688 36.7132 127.307 36.2012 128.096 36.2012C128.886 36.2012 129.504 36.7132 129.504 37.6522V38.8468H129.547C129.91 37.5453 130.614 36.2012 132.129 36.2012C133.111 36.2012 133.836 36.8408 133.836 37.7161C133.836 38.8684 133.068 39.2734 132.3 39.2734H131.745C130.486 39.2734 129.803 40.1486 129.803 42.7305V46.358C129.803 47.19 129.462 47.9154 128.246 47.9154C127.029 47.9154 126.688 47.19 126.688 46.358V37.6522Z" fill="#0061AF"/>
<path d="M137.592 42.6452C137.592 44.2879 138.659 45.4829 140.473 45.4829C142.82 45.4829 142.82 43.9467 144.079 43.9467C144.825 43.9467 145.359 44.5867 145.359 45.1632C145.359 47.0407 142.35 47.9154 140.473 47.9154C136.119 47.9154 134.477 44.9708 134.477 42.261C134.477 38.6334 136.674 36.2012 140.366 36.2012C143.951 36.2012 145.999 38.74 145.999 41.3009C145.999 42.3674 145.679 42.6452 144.633 42.6452H137.592ZM143.055 40.8525C142.884 39.4229 141.817 38.3773 140.43 38.3773C138.872 38.3773 137.933 39.3376 137.592 40.8525H143.055Z" fill="#0061AF"/>
<path d="M152.21 32.7874C152.338 32.4457 152.552 31.9121 153.384 31.9121C153.874 31.9121 154.493 32.3179 154.493 33.0007C154.493 33.2353 154.408 33.4702 154.322 33.7047L149.223 47.1263C149.094 47.4677 148.881 48.0013 148.049 48.0013C147.558 48.0013 146.939 47.5958 146.939 46.913C146.939 46.6784 147.025 46.4435 147.11 46.209L152.21 32.7874Z" fill="#9A258F"/>
<path d="M163.028 42.0581L156.157 39.0494C155.261 38.6652 155.154 38.1961 155.154 37.7051C155.154 37.0223 155.645 36.5527 156.327 36.5527C156.626 36.5527 156.968 36.5959 157.501 36.8517L166.186 40.8421C166.421 40.9468 166.62 41.1174 166.76 41.3333C166.901 41.5491 166.975 41.801 166.975 42.0583C166.975 42.3157 166.901 42.5675 166.76 42.7833C166.62 42.9992 166.421 43.1698 166.186 43.2745L157.501 47.2647C156.968 47.5209 156.626 47.5635 156.327 47.5635C155.645 47.5635 155.154 47.0938 155.154 46.4109C155.154 45.9204 155.261 45.4508 156.157 45.0667L163.028 42.0581Z" fill="#00A88E"/>
</g>
<defs>
<linearGradient id="paint0_linear_2_952" x1="37.957" y1="15.1289" x2="121.503" y2="15.1289" gradientUnits="userSpaceOnUse">
<stop stop-color="#006EB9"/>
<stop offset="1" stop-color="#00A99D"/>
</linearGradient>
<clipPath id="clip0_2_952">
<rect width="166.976" height="46.08" fill="white" transform="translate(0 1.92188)"/>
</clipPath>
</defs>
</svg>
