<svg width="16" height="16" viewBox="0 0 16 16" fill="none" xmlns="http://www.w3.org/2000/svg">
<path d="M15 5.35408V11.3846C15 11.9457 14.7695 12.4837 14.3593 12.8804C13.9491 13.2771 13.3927 13.5 12.8125 13.5H3.1875C2.60734 13.5 2.05094 13.2771 1.6407 12.8804C1.23047 12.4837 1 11.9457 1 11.3846V5.35408L7.77775 9.21085C7.84508 9.24925 7.92183 9.2695 8 9.2695C8.07817 9.2695 8.15492 9.24925 8.22225 9.21085L15 5.35408ZM12.8125 2.5C13.3508 2.49992 13.8701 2.69174 14.2713 3.03878C14.6725 3.38582 14.9272 3.8637 14.9869 4.381L8 8.35539L1.01313 4.381C1.07276 3.8637 1.32753 3.38582 1.7287 3.03878C2.12986 2.69174 2.64925 2.49992 3.1875 2.5H12.8125Z" fill="white"/>
</svg>
