<svg width="16" height="16" viewBox="0 0 16 16" fill="none" xmlns="http://www.w3.org/2000/svg">
<path d="M16 5.66826V12.4585C16 13.5512 15.0987 14.4878 13.9515 14.5658C12.2308 14.7219 9.85453 14.8 8.05186 14.8C6.24918 14.8 3.87293 14.6439 2.1522 14.5658C1.00505 14.4878 0.103711 13.5512 0.103711 12.4585V5.66826L1.33281 6.29265L6.98664 9.25851C7.3144 9.41461 7.7241 9.49265 8.05186 9.49265C8.37961 9.49265 8.78931 9.41461 9.11707 9.25851L14.7709 6.29265L16 5.66826Z" fill="#344054"/>
<path d="M15.9181 3.95122C15.9181 4.10732 15.8361 4.34147 15.6723 4.41952L14.689 4.88781L8.46158 8.16586C8.13382 8.32196 7.80606 8.32196 7.4783 8.16586L0.267614 4.41952C0.103734 4.34147 -0.0601448 4.18537 0.0217948 4.02927C0.185674 3.09268 1.00507 2.3122 2.07029 2.23415C3.79102 2.07805 6.16727 2 7.96994 2C9.77261 2 12.2308 2.1561 13.8696 2.23415C14.9348 2.3122 15.7542 3.01464 15.9181 3.95122Z" fill="#344054"/>
</svg>
