<svg width="28" height="20" viewBox="0 0 28 20" fill="none" xmlns="http://www.w3.org/2000/svg">
<path d="M27.4149 3.08042C27.0929 1.8679 26.1441 0.912955 24.9394 0.588881C22.7559 0 14 0 14 0C14 0 5.2442 0 3.06058 0.588881C1.8559 0.913007 0.907111 1.8679 0.585087 3.08042C0 5.27819 0 9.86363 0 9.86363C0 9.86363 0 14.4491 0.585087 16.6468C0.907111 17.8594 1.8559 18.7745 3.06058 19.0986C5.2442 19.6875 14 19.6875 14 19.6875C14 19.6875 22.7558 19.6875 24.9394 19.0986C26.1441 18.7745 27.0929 17.8594 27.4149 16.6468C28 14.4491 28 9.86363 28 9.86363C28 9.86363 28 5.27819 27.4149 3.08042ZM11.1363 14.0269V5.7004L18.4545 9.86373L11.1363 14.0269Z" fill="white"/>
</svg>
