<svg width="20" height="20" viewBox="0 0 20 20" fill="none" xmlns="http://www.w3.org/2000/svg">
<path d="M10 2C5.58214 2 2 5.58214 2 10C2 14.4179 5.58214 18 10 18C14.4179 18 18 14.4179 18 10C18 5.58214 14.4179 2 10 2ZM13.8446 8.03036C13.85 8.11429 13.85 8.20179 13.85 8.2875C13.85 10.9089 11.8536 13.9286 8.20536 13.9286C7.08036 13.9286 6.0375 13.6018 5.15893 13.0393C5.31964 13.0571 5.47321 13.0643 5.6375 13.0643C6.56607 13.0643 7.41964 12.75 8.1 12.2179C7.22857 12.2 6.49643 11.6286 6.24643 10.8429C6.55179 10.8875 6.82679 10.8875 7.14107 10.8071C6.69237 10.716 6.28906 10.4723 5.99967 10.1175C5.71028 9.76265 5.55265 9.31858 5.55357 8.86071V8.83571C5.81607 8.98393 6.125 9.075 6.44821 9.0875C6.1765 8.90642 5.95368 8.66109 5.79948 8.37327C5.64529 8.08544 5.56451 7.76402 5.56429 7.4375C5.56429 7.06786 5.66071 6.73036 5.83393 6.4375C6.33197 7.0506 6.95345 7.55204 7.65797 7.90922C8.3625 8.26641 9.1343 8.47135 9.92321 8.51071C9.64286 7.1625 10.65 6.07143 11.8607 6.07143C12.4321 6.07143 12.9464 6.31071 13.3089 6.69643C13.7571 6.6125 14.1857 6.44464 14.5679 6.21964C14.4196 6.67857 14.1089 7.06607 13.6964 7.31071C14.0964 7.26786 14.4821 7.15714 14.8393 7.00179C14.5696 7.39821 14.2321 7.75 13.8446 8.03036Z" fill="white"/>
</svg>
